<svg xmlns="http://www.w3.org/2000/svg" width="15.128" height="24.145" viewBox="0 0 15.128 24.145"><defs><style>.a{fill:#45485a;}</style></defs><g transform="translate(-25.498 -12.951)"><path class="a" d="M33.833,16.074V12.951H32.29v3.123a7.21,7.21,0,0,0-6.792,6.91.772.772,0,0,0,.772.772h.36l1.826,12.678a.772.772,0,0,0,.764.662H36.9a.772.772,0,0,0,.764-.662l1.825-12.678h.36a.772.772,0,0,0,.772-.772A7.21,7.21,0,0,0,33.833,16.074Zm5.187,6.139H33.833V17.631A5.763,5.763,0,0,1,39.021,22.212ZM32.29,17.631v4.581H27.1A5.763,5.763,0,0,1,32.29,17.631Zm3.946,17.921H29.889l-1.7-11.8h4.1V34.613h1.544V23.756h4.1Z" transform="translate(0)"/></g></svg>