<svg xmlns="http://www.w3.org/2000/svg" width="13.861" height="19.29" viewBox="0 0 13.861 19.29"><defs><style>.a{fill:#45485a;}</style></defs><g transform="translate(-34.994 -29.117)"><path class="a" d="M48.855,29.579a.461.461,0,0,0-.462-.462H35.456a.462.462,0,0,0-.462.462l1.379,17.9a.963.963,0,0,0,.924.924h9.228a.938.938,0,0,0,.924-.924ZM37,37.814a5.128,5.128,0,0,1,2.737.151,9.611,9.611,0,0,0,2.884.463,7.651,7.651,0,0,0,2.7-.474c.282-.106.549-.215.8-.316s.527-.216.76-.3l-.727,9.628a11.578,11.578,0,0,0-4.223-.611,11.513,11.513,0,0,0-4.235.616ZM47.4,30.5l-.407,5.392a6.941,6.941,0,0,0-1.321.448c-.238.1-.494.2-.764.3a7.265,7.265,0,0,1-4.8-.011,6.371,6.371,0,0,0-3.2-.21L36.454,30.5H47.4Z"/></g></svg>