<svg xmlns="http://www.w3.org/2000/svg" width="20.468" height="24.946" viewBox="0 0 20.468 24.946"><defs><style>.a{fill:#45485a;stroke:#45485a;stroke-width:0.8px;}</style></defs><g transform="translate(-9.145 0.303)"><g transform="translate(9.7 0.097)"><g transform="translate(0 4.544)"><path class="a" d="M17.192,27.915a3.342,3.342,0,0,1-3.335-3.48c0-.8-.411-1.063-1.088-1.474a6,6,0,0,1-2.949-3.7L9.7,18.9H24.757l-.121.363a6.58,6.58,0,0,1-3.287,3.915,1.438,1.438,0,0,0-.773,1.257h0A3.309,3.309,0,0,1,17.192,27.915Zm-6.743-8.459A5.343,5.343,0,0,0,13.035,22.5c.725.435,1.353.822,1.353,1.934a2.83,2.83,0,1,0,5.656,0,1.979,1.979,0,0,1,1.063-1.764,5.773,5.773,0,0,0,2.876-3.239H10.449Z" transform="translate(-9.7 -18.9)"/></g><g transform="translate(3.22 20.931)"><path class="a" d="M31.065,89.914H23.621a.593.593,0,0,1-.58-.483.652.652,0,0,1,.314-.725L27.343,86.7l3.964,2.006a.622.622,0,0,1,.314.725.568.568,0,0,1-.556.483ZM27.343,87.3,23.6,89.189c-.048.024-.048.1-.048.121a.052.052,0,0,0,.048.048h7.444a.052.052,0,0,0,.048-.048s.024-.1-.048-.121Z" transform="translate(-23.023 -86.7)"/></g><g transform="translate(7.275 13.004)"><path class="a" d="M40.066,62.407a.268.268,0,0,1-.266-.266V54.166a.266.266,0,0,1,.532,0v7.976A.268.268,0,0,1,40.066,62.407Z" transform="translate(-39.8 -53.9)"/></g><g transform="translate(9.813 0)"><path class="a" d="M55.158,9.765a4.8,4.8,0,0,1-3-1.039l.338-.435a4.2,4.2,0,0,0,3.094.894,4.29,4.29,0,1,0-4.737-4.254H50.3A4.848,4.848,0,0,1,55.134.1a4.783,4.783,0,0,1,3.553,1.5,4.888,4.888,0,0,1,1.305,3.625,4.925,4.925,0,0,1-4.35,4.52C55.472,9.741,55.327,9.765,55.158,9.765Z" transform="translate(-50.3 -0.097)"/></g><g transform="translate(14.405 1.813)"><path class="a" d="M72.321,11.056h0a.259.259,0,0,1-.266-.29,2.416,2.416,0,0,0-.677-1.861,2.448,2.448,0,0,0-1.813-.773.266.266,0,0,1,0-.532,3,3,0,0,1,2.224.967,3.051,3.051,0,0,1,.822,2.272A.29.29,0,0,1,72.321,11.056Z" transform="translate(-69.3 -7.6)"/></g></g></g></svg>