<svg xmlns="http://www.w3.org/2000/svg" width="22.689" height="22.689" viewBox="0 0 22.689 22.689"><defs><style>.a{fill:#b5076b;}</style></defs><g transform="translate(0 0)"><path class="a" d="M2.354,2.354A8.911,8.911,0,0,1,15.992,13.719l5.872,5.493c1.768,1.7-.947,4.42-2.652,2.652l-5.493-5.872A8.911,8.911,0,0,1,2.354,2.354ZM3.491,3.491A7.322,7.322,0,0,0,13.845,13.845,7.322,7.322,0,0,0,3.491,3.491Z" transform="translate(0.25 0.25)"/><path class="a" d="M84.821,42.009a.552.552,0,0,1-.568-.947,6.362,6.362,0,0,1,6.756.063.6.6,0,0,1,.189.758.524.524,0,0,1-.758.126A5.306,5.306,0,0,0,84.821,42.009Z" transform="translate(-78.681 -37.574)"/></g></svg>